<svg preserveAspectRatio="none" overflow="visible" style="display: block;" width="19.5" height="19.5" viewBox="0 0 19.5 19.5" fill="none" xmlns="http://www.w3.org/2000/svg">
<g id="glyph">
<path id="Vector" d="M9.75 13.75H9.76" stroke="#7C96FF" stroke-width="1.5" stroke-linecap="round" stroke-linejoin="round"/>
<path id="Vector_2" d="M13.75 13.75H13.76" stroke="#7C96FF" stroke-width="1.5" stroke-linecap="round" stroke-linejoin="round"/>
<path id="Vector_3" d="M0.75 16.75C0.75 17.2804 0.960714 17.7891 1.33579 18.1642C1.71086 18.5393 2.21957 18.75 2.75 18.75H16.75C17.2804 18.75 17.7891 18.5393 18.1642 18.1642C18.5393 17.7891 18.75 17.2804 18.75 16.75V6.25C18.7501 6.1603 18.7261 6.07223 18.6804 5.99502C18.6348 5.9178 18.5692 5.85429 18.4905 5.81114C18.4119 5.76798 18.3231 5.74678 18.2335 5.74975C18.1438 5.75271 18.0566 5.77974 17.981 5.828L13.519 8.672C13.4434 8.72026 13.3562 8.74729 13.2665 8.75025C13.1769 8.75322 13.0881 8.73202 13.0095 8.68886C12.9308 8.64571 12.8652 8.5822 12.8196 8.50498C12.7739 8.42777 12.7499 8.3397 12.75 8.25V6.25C12.7501 6.1603 12.7261 6.07223 12.6804 5.99502C12.6348 5.9178 12.5692 5.85429 12.4905 5.81114C12.4119 5.76798 12.3231 5.74678 12.2335 5.74975C12.1438 5.75271 12.0566 5.77974 11.981 5.828L7.52 8.672C7.44437 8.72052 7.35707 8.74777 7.26727 8.75087C7.17747 8.75397 7.08849 8.73282 7.0097 8.68964C6.9309 8.64645 6.8652 8.58283 6.8195 8.50547C6.7738 8.4281 6.74979 8.33985 6.75 8.25V2.75C6.75 2.21957 6.53929 1.71086 6.16421 1.33579C5.78914 0.960714 5.28043 0.75 4.75 0.75H2.75C2.21957 0.75 1.71086 0.960714 1.33579 1.33579C0.960714 1.71086 0.75 2.21957 0.75 2.75V16.75Z" stroke="#7C96FF" stroke-width="1.5" stroke-linecap="round" stroke-linejoin="round"/>
<path id="Vector_4" d="M5.75 13.75H5.76" stroke="#7C96FF" stroke-width="1.5" stroke-linecap="round" stroke-linejoin="round"/>
</g>
</svg>
